<svg width="442" height="663" viewBox="0 0 442 663" fill="none" xmlns="http://www.w3.org/2000/svg">
<g clip-path="url(#clip0_997_2541)">
<path d="M64.3685 1.2088H43.3628C-0.225037 1.2088 1.92468 38.4758 1.92468 38.4963H4.77048C4.86942 36.7256 5.06076 34.9612 5.34372 33.2105L5.52802 32.268C5.90717 30.2808 6.44809 28.328 7.14539 26.4291C14.5977 6.3307 36.4428 6.80188 36.4428 6.80188H237.737C237.737 6.80188 355.766 6.80187 381.931 7.04772C397.184 7.19114 404.022 16.7588 407.073 24.708C408.812 29.3815 409.612 34.3526 409.427 39.3362L406.684 162.037L399.825 443.721C399.825 443.721 396.119 595.903 395.362 625.958C394.604 656.014 360.864 655.481 360.864 655.481H52.2892C20.4122 655.481 19.0814 625.364 19.0814 625.364L17.6892 567.999H13.2465C13.0008 505.594 11.1991 416.288 11.1991 416.288L4.46338 137.82L2.41605 50.9118L2.12943 38.6192" fill="white"/>
<path d="M85.4728 55H326.035C347.835 55 365.508 72.6848 365.508 94.5001V220.376C365.508 242.191 347.835 259.876 326.035 259.876H85.4728C63.6727 259.876 46.0001 242.191 46.0001 220.376V94.5001C46.0001 72.6848 63.6727 55 85.4728 55Z" fill="#565656"/>
<path d="M92.1702 60.6956H319.343C339.933 60.6956 356.625 77.3989 356.625 98.0035V216.873C356.625 237.477 339.933 254.181 319.343 254.181H92.1702C71.5799 254.181 54.8882 237.477 54.8882 216.873V98.0035C54.8882 77.3989 71.5799 60.6956 92.1702 60.6956Z" fill="#7A9CCE" stroke="#3D3232" stroke-width="1.5" stroke-linecap="round" stroke-linejoin="round"/>
<path d="M338.508 236.12C334.766 236.12 331.732 233.084 331.732 229.338C331.732 225.593 334.766 222.557 338.508 222.557C342.251 222.557 345.285 225.593 345.285 229.338C345.285 233.084 342.251 236.12 338.508 236.12Z" fill="#565656"/>
<path d="M43.3644 1.24973H105.911C202.811 1.24973 371.553 1.24973 390.491 1.24973H394.074C401.346 0.947315 408.623 1.7557 415.653 3.64688C420.982 5.1673 425.887 7.90206 429.984 11.637C436.494 17.7833 441.121 27.4535 440.753 42.8397C440.569 50.2562 440.262 62.9381 439.873 79.0618C438.787 123.991 437.027 195.841 435.573 255.972C434.14 315.079 432.973 362.897 432.973 362.897L426.135 625.139C426.015 633.359 423.13 641.299 417.946 647.675C412.09 654.703 402.099 661.238 385.188 661.238H45.8417C45.8417 661.238 11.9787 658.349 13.0843 610.019C13.3095 599.406 13.3709 584.676 13.3095 568.019H17.6703L19.0625 625.385C19.0625 625.385 20.3932 655.502 52.2703 655.502H360.866C360.866 655.502 394.606 656.014 395.363 625.979C396.121 595.944 399.827 443.742 399.827 443.742L406.685 162.057L409.429 39.3363C409.596 34.3351 408.775 29.3502 407.013 24.6672C403.921 16.7385 397.063 7.33461 381.933 7.1912C355.768 6.94534 237.739 6.94535 237.739 6.94535H36.5058C36.5058 6.94535 6.61465 6.2692 4.83347 38.6396H1.98767C1.98767 38.6396 -0.162018 1.33168 43.3644 1.24973Z" fill="#565656"/>
<path d="M291.439 318.91H326.039C339.686 318.91 350.75 329.982 350.75 343.639V348.576C350.75 362.234 339.686 373.305 326.039 373.305H291.439C277.791 373.305 266.727 362.234 266.727 348.576V343.639C266.727 329.982 277.791 318.91 291.439 318.91Z" fill="#565656"/>
<path d="M187.739 318.91H222.339C235.987 318.91 247.051 329.982 247.051 343.639V348.576C247.051 362.234 235.987 373.305 222.339 373.305H187.739C174.092 373.305 163.028 362.234 163.028 348.576V343.639C163.028 329.982 174.092 318.91 187.739 318.91Z" fill="#565656"/>
<path d="M84.0441 318.91H118.644C132.292 318.91 143.355 329.982 143.355 343.639V348.576C143.355 362.234 132.292 373.305 118.644 373.305H84.0441C70.3963 373.305 59.3327 362.234 59.3327 348.576V343.639C59.3327 329.982 70.3963 318.91 84.0441 318.91Z" fill="#565656"/>
<path d="M291.439 391.928H326.039C339.686 391.928 350.75 403 350.75 416.657V421.594C350.75 435.252 339.686 446.323 326.039 446.323H291.439C277.791 446.323 266.727 435.252 266.727 421.594V416.657C266.727 403 277.791 391.928 291.439 391.928Z" fill="#565656"/>
<path d="M187.739 391.928H222.339C235.987 391.928 247.051 403 247.051 416.657V421.594C247.051 435.252 235.987 446.323 222.339 446.323H187.739C174.092 446.323 163.028 435.252 163.028 421.594V416.657C163.028 403 174.092 391.928 187.739 391.928Z" fill="#565656"/>
<path d="M84.0441 391.928H118.644C132.292 391.928 143.355 403 143.355 416.657V421.594C143.355 435.252 132.292 446.323 118.644 446.323H84.0441C70.3963 446.323 59.3327 435.252 59.3327 421.594V416.657C59.3327 403 70.3963 391.928 84.0441 391.928Z" fill="#565656"/>
<path d="M291.439 464.946H326.039C339.686 464.946 350.75 476.018 350.75 489.675V494.612C350.75 508.269 339.686 519.341 326.039 519.341H291.439C277.791 519.341 266.727 508.269 266.727 494.612V489.675C266.727 476.018 277.791 464.946 291.439 464.946Z" fill="#565656"/>
<path d="M187.739 464.946H222.339C235.987 464.946 247.051 476.018 247.051 489.675V494.612C247.051 508.269 235.987 519.341 222.339 519.341H187.739C174.092 519.341 163.028 508.269 163.028 494.612V489.675C163.028 476.018 174.092 464.946 187.739 464.946Z" fill="#565656"/>
<path d="M84.0441 464.946H118.644C132.292 464.946 143.355 476.018 143.355 489.675V494.612C143.355 508.269 132.292 519.341 118.644 519.341H84.0441C70.3963 519.341 59.3327 508.269 59.3327 494.612V489.675C59.3327 476.018 70.3963 464.946 84.0441 464.946Z" fill="#565656"/>
<path d="M291.439 537.944H326.039C339.686 537.944 350.75 549.015 350.75 562.672V567.61C350.75 581.267 339.686 592.338 326.039 592.338H291.439C277.791 592.338 266.727 581.267 266.727 567.61V562.672C266.727 549.015 277.791 537.944 291.439 537.944Z" fill="#565656"/>
<path d="M187.739 537.944H222.339C235.987 537.944 247.051 549.015 247.051 562.672V567.61C247.051 581.267 235.987 592.338 222.339 592.338H187.739C174.092 592.338 163.028 581.267 163.028 567.61V562.672C163.028 549.015 174.092 537.944 187.739 537.944Z" fill="#565656"/>
<path d="M84.0441 537.944H118.644C132.292 537.944 143.355 549.015 143.355 562.672V567.61C143.355 581.267 132.292 592.338 118.644 592.338H84.0441C70.3963 592.338 59.3327 581.267 59.3327 567.61V562.672C59.3327 549.015 70.3963 537.944 84.0441 537.944Z" fill="#565656"/>
<path d="M294.407 323.582H323.07C334.377 323.582 343.543 332.754 343.543 344.069V348.167C343.543 359.482 334.377 368.654 323.07 368.654H294.407C283.1 368.654 273.933 359.482 273.933 348.167V344.069C273.933 332.754 283.1 323.582 294.407 323.582Z" fill="#7A9CCE" stroke="#3D3232" stroke-width="1.5" stroke-linecap="round" stroke-linejoin="round"/>
<path d="M190.712 323.582H219.374C230.681 323.582 239.848 332.754 239.848 344.069V348.167C239.848 359.482 230.681 368.654 219.374 368.654H190.712C179.404 368.654 170.238 359.482 170.238 348.167V344.069C170.238 332.754 179.404 323.582 190.712 323.582Z" fill="#7A9CCE" stroke="#3D3232" stroke-width="1.5" stroke-linecap="round" stroke-linejoin="round"/>
<path d="M87.0123 323.582H115.675C126.982 323.582 136.148 332.754 136.148 344.069V348.167C136.148 359.482 126.982 368.654 115.675 368.654H87.0123C75.7052 368.654 66.5389 359.482 66.5389 348.167V344.069C66.5389 332.754 75.7052 323.582 87.0123 323.582Z" fill="#7A9CCE" stroke="#3D3232" stroke-width="1.5" stroke-linecap="round" stroke-linejoin="round"/>
<path d="M294.407 396.579H323.07C334.377 396.579 343.543 405.752 343.543 417.067V421.164C343.543 432.479 334.377 441.652 323.07 441.652H294.407C283.1 441.652 273.933 432.479 273.933 421.164V417.067C273.933 405.752 283.1 396.579 294.407 396.579Z" fill="#7A9CCE" stroke="#3D3232" stroke-width="1.5" stroke-linecap="round" stroke-linejoin="round"/>
<path d="M190.712 396.579H219.374C230.681 396.579 239.848 405.752 239.848 417.067V421.164C239.848 432.479 230.681 441.652 219.374 441.652H190.712C179.404 441.652 170.238 432.479 170.238 421.164V417.067C170.238 405.752 179.404 396.579 190.712 396.579Z" fill="#7A9CCE" stroke="#3D3232" stroke-width="1.5" stroke-linecap="round" stroke-linejoin="round"/>
<path d="M87.0123 396.579H115.675C126.982 396.579 136.148 405.752 136.148 417.067V421.164C136.148 432.479 126.982 441.652 115.675 441.652H87.0123C75.7052 441.652 66.5389 432.479 66.5389 421.164V417.067C66.5389 405.752 75.7052 396.579 87.0123 396.579Z" fill="#7A9CCE" stroke="#3D3232" stroke-width="1.5" stroke-linecap="round" stroke-linejoin="round"/>
<path d="M294.407 469.597H323.07C334.377 469.597 343.543 478.769 343.543 490.084V494.182C343.543 505.497 334.377 514.67 323.07 514.67H294.407C283.1 514.67 273.933 505.497 273.933 494.182V490.084C273.933 478.769 283.1 469.597 294.407 469.597Z" fill="#7A9CCE" stroke="#3D3232" stroke-width="1.5" stroke-linecap="round" stroke-linejoin="round"/>
<path d="M190.712 469.597H219.374C230.681 469.597 239.848 478.769 239.848 490.084V494.182C239.848 505.497 230.681 514.67 219.374 514.67H190.712C179.404 514.67 170.238 505.497 170.238 494.182V490.084C170.238 478.769 179.404 469.597 190.712 469.597Z" fill="#7A9CCE" stroke="#3D3232" stroke-width="1.5" stroke-linecap="round" stroke-linejoin="round"/>
<path d="M87.0123 469.597H115.675C126.982 469.597 136.148 478.769 136.148 490.084V494.182C136.148 505.497 126.982 514.67 115.675 514.67H87.0123C75.7052 514.67 66.5389 505.497 66.5389 494.182V490.084C66.5389 478.769 75.7052 469.597 87.0123 469.597Z" fill="#7A9CCE" stroke="#3D3232" stroke-width="1.5" stroke-linecap="round" stroke-linejoin="round"/>
<path d="M294.407 542.615H323.07C334.377 542.615 343.543 551.787 343.543 563.102V567.2C343.543 578.515 334.377 587.688 323.07 587.688H294.407C283.1 587.688 273.933 578.515 273.933 567.2V563.102C273.933 551.787 283.1 542.615 294.407 542.615Z" fill="#7A9CCE" stroke="#3D3232" stroke-width="1.5" stroke-linecap="round" stroke-linejoin="round"/>
<path d="M190.712 542.615H219.374C230.681 542.615 239.848 551.787 239.848 563.102V567.2C239.848 578.515 230.681 587.688 219.374 587.688H190.712C179.404 587.688 170.238 578.515 170.238 567.2V563.102C170.238 551.787 179.404 542.615 190.712 542.615Z" fill="#7A9CCE" stroke="#3D3232" stroke-width="1.5" stroke-linecap="round" stroke-linejoin="round"/>
<path d="M87.0123 542.615H115.675C126.982 542.615 136.148 551.787 136.148 563.102V567.2C136.148 578.515 126.982 587.688 115.675 587.688H87.0123C75.7052 587.688 66.5389 578.515 66.5389 567.2V563.102C66.5389 551.787 75.7052 542.615 87.0123 542.615Z" fill="#85BB65"/>
<path d="M63.9582 1.61858H42.9934C-0.573943 1.61858 1.55528 38.906 1.55528 38.9265H4.4625C4.55668 37.1544 4.75492 35.3894 5.05621 33.6406L5.2405 32.6778C5.61277 30.689 6.15385 28.7356 6.85788 26.8388C14.3102 6.74048 36.1553 7.21166 36.1553 7.21166H237.306C237.306 7.21166 355.356 7.21165 381.5 7.4575C396.774 7.60091 403.612 17.1686 406.662 25.1383C408.377 29.761 409.169 34.6749 408.996 39.6026L406.253 162.324L399.415 444.008C399.415 444.008 395.709 596.169 394.951 626.225C394.194 656.28 360.433 655.747 360.433 655.747H51.8584C20.0018 655.747 18.671 625.651 18.671 625.651L17.2788 568.286H12.8156C12.5904 505.901 10.7683 416.677 10.7683 416.677L3.99162 138.394L1.94428 51.4854L1.63716 39.1928" stroke="#3D3232" stroke-width="1.5" stroke-miterlimit="10"/>
<path d="M85.8049 55.3371H326.367C348.167 55.3371 365.84 73.0219 365.84 94.8372V220.713C365.84 242.529 348.167 260.213 326.367 260.213H85.8049C64.0047 260.213 46.3322 242.529 46.3322 220.713V94.8372C46.3322 73.0219 64.0047 55.3371 85.8049 55.3371Z" stroke="#3D3232" stroke-width="1.5" stroke-miterlimit="10"/>
<path d="M92.5179 61.0326H319.691C340.281 61.0326 356.973 77.736 356.973 98.3406V217.21C356.973 237.814 340.281 254.518 319.691 254.518H92.5179C71.9276 254.518 55.2358 237.814 55.2358 217.21V98.3406C55.2358 77.736 71.9276 61.0326 92.5179 61.0326Z" stroke="#3D3232" stroke-width="1.5" stroke-miterlimit="10"/>
<path d="M338.098 236.53C334.356 236.53 331.322 233.493 331.322 229.748C331.322 226.003 334.356 222.967 338.098 222.967C341.841 222.967 344.875 226.003 344.875 229.748C344.875 233.493 341.841 236.53 338.098 236.53Z" fill="#565656" stroke="#3D3232" stroke-width="1.5" stroke-miterlimit="10"/>
<path d="M42.9929 1.63899H63.9577H105.498C202.378 1.63899 371.12 1.63899 390.078 1.63899H393.641C400.92 1.34777 408.201 2.15595 415.24 4.03613C420.575 5.5535 425.483 8.29648 429.571 12.0467C436.102 18.193 440.729 27.8427 440.34 43.2494C440.177 50.6659 439.87 63.3273 439.46 79.4511C438.375 124.401 436.635 196.231 435.161 256.382C433.728 315.468 432.561 363.307 432.561 363.307L425.743 625.549C425.612 633.767 422.729 641.703 417.554 648.085C411.719 655.112 401.728 661.648 384.796 661.648H45.4088C45.4088 661.648 11.5458 658.759 12.6513 610.429C12.8766 599.837 12.9175 585.086 12.8561 568.429H17.1964L18.5886 625.795C18.5886 625.795 19.9194 655.891 51.776 655.891H360.433C360.433 655.891 394.193 656.403 394.951 626.368C395.708 596.333 399.414 444.151 399.414 444.151L406.252 162.262L408.996 39.5616C409.155 34.5943 408.334 29.6444 406.58 24.9949C403.488 17.0867 396.63 7.66234 381.5 7.51893C355.355 7.27308 237.306 7.27309 237.306 7.27309H36.0934C36.0934 7.27309 6.18176 6.55606 4.46199 38.947H1.61619C1.61619 38.947 -0.574448 1.74143 42.9929 1.63899Z" stroke="#3D3232" stroke-width="1.5" stroke-miterlimit="10"/>
<path d="M291.009 319.3H325.609C339.257 319.3 350.32 330.371 350.32 344.028V348.966C350.32 362.623 339.257 373.694 325.609 373.694H291.009C277.361 373.694 266.298 362.623 266.298 348.966V344.028C266.298 330.371 277.361 319.3 291.009 319.3Z" stroke="#3D3232" stroke-width="1.5" stroke-miterlimit="10"/>
<path d="M187.31 319.3H221.91C235.557 319.3 246.621 330.371 246.621 344.028V348.966C246.621 362.623 235.557 373.694 221.91 373.694H187.31C173.662 373.694 162.598 362.623 162.598 348.966V344.028C162.598 330.371 173.662 319.3 187.31 319.3Z" stroke="#3D3232" stroke-width="1.5" stroke-miterlimit="10"/>
<path d="M83.6339 319.3H118.234C131.882 319.3 142.945 330.371 142.945 344.028V348.966C142.945 362.623 131.882 373.694 118.234 373.694H83.6339C69.9862 373.694 58.9225 362.623 58.9225 348.966V344.028C58.9225 330.371 69.9862 319.3 83.6339 319.3Z" stroke="#3D3232" stroke-width="1.5" stroke-miterlimit="10"/>
<path d="M291.009 392.318H325.609C339.257 392.318 350.32 403.389 350.32 417.046V421.984C350.32 435.641 339.257 446.712 325.609 446.712H291.009C277.361 446.712 266.298 435.641 266.298 421.984V417.046C266.298 403.389 277.361 392.318 291.009 392.318Z" stroke="#3D3232" stroke-width="1.5" stroke-miterlimit="10"/>
<path d="M187.31 392.318H221.91C235.557 392.318 246.621 403.389 246.621 417.046V421.984C246.621 435.641 235.557 446.712 221.91 446.712H187.31C173.662 446.712 162.598 435.641 162.598 421.984V417.046C162.598 403.389 173.662 392.318 187.31 392.318Z" stroke="#3D3232" stroke-width="1.5" stroke-miterlimit="10"/>
<path d="M83.6339 392.318H118.234C131.882 392.318 142.945 403.389 142.945 417.046V421.984C142.945 435.641 131.882 446.712 118.234 446.712H83.6339C69.9862 446.712 58.9225 435.641 58.9225 421.984V417.046C58.9225 403.389 69.9862 392.318 83.6339 392.318Z" stroke="#3D3232" stroke-width="1.5" stroke-miterlimit="10"/>
<path d="M291.009 465.335H325.609C339.257 465.335 350.32 476.407 350.32 490.064V495.002C350.32 508.659 339.257 519.73 325.609 519.73H291.009C277.361 519.73 266.298 508.659 266.298 495.002V490.064C266.298 476.407 277.361 465.335 291.009 465.335Z" stroke="#3D3232" stroke-width="1.5" stroke-miterlimit="10"/>
<path d="M187.31 465.335H221.91C235.557 465.335 246.621 476.407 246.621 490.064V495.002C246.621 508.659 235.557 519.73 221.91 519.73H187.31C173.662 519.73 162.598 508.659 162.598 495.002V490.064C162.598 476.407 173.662 465.335 187.31 465.335Z" stroke="#3D3232" stroke-width="1.5" stroke-miterlimit="10"/>
<path d="M83.6339 465.335H118.234C131.882 465.335 142.945 476.407 142.945 490.064V495.002C142.945 508.659 131.882 519.73 118.234 519.73H83.6339C69.9862 519.73 58.9225 508.659 58.9225 495.002V490.064C58.9225 476.407 69.9862 465.335 83.6339 465.335Z" stroke="#3D3232" stroke-width="1.5" stroke-miterlimit="10"/>
<path d="M291.009 538.353H325.609C339.257 538.353 350.32 549.425 350.32 563.082V568.019C350.32 581.677 339.257 592.748 325.609 592.748H291.009C277.361 592.748 266.298 581.677 266.298 568.019V563.082C266.298 549.425 277.361 538.353 291.009 538.353Z" stroke="#3D3232" stroke-width="1.5" stroke-miterlimit="10"/>
<path d="M187.31 538.353H221.91C235.557 538.353 246.621 549.425 246.621 563.082V568.019C246.621 581.677 235.557 592.748 221.91 592.748H187.31C173.662 592.748 162.598 581.677 162.598 568.019V563.082C162.598 549.425 173.662 538.353 187.31 538.353Z" stroke="#3D3232" stroke-width="1.5" stroke-miterlimit="10"/>
<path d="M83.6339 538.353H118.234C131.882 538.353 142.945 549.425 142.945 563.082V568.019C142.945 581.677 131.882 592.748 118.234 592.748H83.6339C69.9862 592.748 58.9225 581.677 58.9225 568.019V563.082C58.9225 549.425 69.9862 538.353 83.6339 538.353Z" stroke="#3D3232" stroke-width="1.5" stroke-miterlimit="10"/>
<path d="M293.977 323.971H322.64C333.947 323.971 343.113 333.143 343.113 344.458V348.556C343.113 359.871 333.947 369.044 322.64 369.044H293.977C282.67 369.044 273.504 359.871 273.504 348.556V344.458C273.504 333.143 282.67 323.971 293.977 323.971Z" stroke="#3D3232" stroke-width="1.5" stroke-miterlimit="10"/>
<path d="M190.278 323.971H218.941C230.248 323.971 239.414 333.143 239.414 344.458V348.556C239.414 359.871 230.248 369.044 218.941 369.044H190.278C178.971 369.044 169.805 359.871 169.805 348.556V344.458C169.805 333.143 178.971 323.971 190.278 323.971Z" stroke="#3D3232" stroke-width="1.5" stroke-miterlimit="10"/>
<path d="M86.6021 323.971H115.265C126.572 323.971 135.738 333.143 135.738 344.458V348.556C135.738 359.871 126.572 369.044 115.265 369.044H86.6021C75.295 369.044 66.1288 359.871 66.1288 348.556V344.458C66.1288 333.143 75.295 323.971 86.6021 323.971Z" stroke="#3D3232" stroke-width="1.5" stroke-miterlimit="10"/>
<path d="M293.977 396.989H322.64C333.947 396.989 343.113 406.161 343.113 417.476V421.574C343.113 432.889 333.947 442.061 322.64 442.061H293.977C282.67 442.061 273.504 432.889 273.504 421.574V417.476C273.504 406.161 282.67 396.989 293.977 396.989Z" stroke="#3D3232" stroke-width="1.5" stroke-miterlimit="10"/>
<path d="M190.278 396.989H218.941C230.248 396.989 239.414 406.161 239.414 417.476V421.574C239.414 432.889 230.248 442.061 218.941 442.061H190.278C178.971 442.061 169.805 432.889 169.805 421.574V417.476C169.805 406.161 178.971 396.989 190.278 396.989Z" stroke="#3D3232" stroke-width="1.5" stroke-miterlimit="10"/>
<path d="M86.6021 396.989H115.265C126.572 396.989 135.738 406.161 135.738 417.476V421.574C135.738 432.889 126.572 442.061 115.265 442.061H86.6021C75.295 442.061 66.1288 432.889 66.1288 421.574V417.476C66.1288 406.161 75.295 396.989 86.6021 396.989Z" stroke="#3D3232" stroke-width="1.5" stroke-miterlimit="10"/>
<path d="M293.977 470.007H322.64C333.947 470.007 343.113 479.179 343.113 490.494V494.592C343.113 505.907 333.947 515.079 322.64 515.079H293.977C282.67 515.079 273.504 505.907 273.504 494.592V490.494C273.504 479.179 282.67 470.007 293.977 470.007Z" stroke="#3D3232" stroke-width="1.5" stroke-miterlimit="10"/>
<path d="M190.278 470.007H218.941C230.248 470.007 239.414 479.179 239.414 490.494V494.592C239.414 505.907 230.248 515.079 218.941 515.079H190.278C178.971 515.079 169.805 505.907 169.805 494.592V490.494C169.805 479.179 178.971 470.007 190.278 470.007Z" stroke="#3D3232" stroke-width="1.5" stroke-miterlimit="10"/>
<path d="M86.6021 470.007H115.265C126.572 470.007 135.738 479.179 135.738 490.494V494.592C135.738 505.907 126.572 515.079 115.265 515.079H86.6021C75.295 515.079 66.1288 505.907 66.1288 494.592V490.494C66.1288 479.179 75.295 470.007 86.6021 470.007Z" stroke="#3D3232" stroke-width="1.5" stroke-miterlimit="10"/>
<path d="M293.977 543.004H322.64C333.947 543.004 343.113 552.177 343.113 563.492V567.589C343.113 578.904 333.947 588.077 322.64 588.077H293.977C282.67 588.077 273.504 578.904 273.504 567.589V563.492C273.504 552.177 282.67 543.004 293.977 543.004Z" stroke="#3D3232" stroke-width="1.5" stroke-miterlimit="10"/>
<path d="M190.278 543.004H218.941C230.248 543.004 239.414 552.177 239.414 563.492V567.589C239.414 578.904 230.248 588.077 218.941 588.077H190.278C178.971 588.077 169.805 578.904 169.805 567.589V563.492C169.805 552.177 178.971 543.004 190.278 543.004Z" stroke="#3D3232" stroke-width="1.5" stroke-miterlimit="10"/>
<path d="M86.6021 543.004H115.265C126.572 543.004 135.738 552.177 135.738 563.492V567.589C135.738 578.904 126.572 588.077 115.265 588.077H86.6021C75.295 588.077 66.1288 578.904 66.1288 567.589V563.492C66.1288 552.177 75.295 543.004 86.6021 543.004Z" stroke="#3D3232" stroke-width="1.5" stroke-miterlimit="10"/>
</g>
<defs>
<clipPath id="clip0_997_2541">
<rect width="442" height="663" fill="white" transform="matrix(-1 0 0 1 442 0)"/>
</clipPath>
</defs>
</svg>
