<svg width="265" height="418" viewBox="0 0 265 418" fill="none" xmlns="http://www.w3.org/2000/svg">
<g clip-path="url(#clip0_1089_5)">
<path d="M25.3207 0.140869H15.2141H11.9882C-15.7353 0.204474 -14.3802 23.7155 -14.3802 23.7291H-12.555C-12.4944 22.6083 -12.3695 21.4919 -12.1809 20.3853C-12.1444 20.1854 -12.1079 19.9855 -12.0669 19.7856C-11.8256 18.5283 -11.4807 17.2929 -11.0357 16.092C-6.29036 3.37106 7.60334 3.68003 7.60334 3.68003H135.653C135.653 3.68003 210.771 3.68001 227.416 3.83903C237.125 3.92989 241.478 9.98139 243.422 15.0107C244.512 17.9381 245.017 21.0494 244.909 24.1698L243.166 101.763L238.804 279.887C238.804 279.887 236.45 376.121 235.971 395.121C235.492 414.12 214.006 413.793 214.006 413.793H17.6324C-2.64922 413.793 -3.48879 394.757 -3.48879 394.757L-4.40135 358.439H-7.23482C-7.3854 318.977 -8.56261 262.496 -8.56261 262.496L-12.8653 86.5158L-14.2342 31.5433L-14.4258 23.7154" fill="white"/>
<path d="M28.7935 184.117L202.809 184.117C218.73 184.117 231.637 171.266 231.637 155.413L231.637 62.8231C231.637 46.9704 218.73 34.1192 202.809 34.1192L28.7935 34.1192C12.8724 34.1192 -0.0342255 46.9704 -0.0342255 62.8231L-0.0342255 155.413C-0.0342255 171.266 12.8724 184.117 28.7935 184.117Z" fill="#565656"/>
<path d="M33.6306 179.946L197.973 179.946C213.01 179.946 225.199 167.809 225.199 152.837V65.3899C225.199 50.418 213.01 38.2808 197.973 38.2808L33.6306 38.2808C18.594 38.2808 6.40443 50.418 6.40443 65.3899V152.837C6.40443 167.809 18.594 179.946 33.6306 179.946Z" fill="#7A9CCE" stroke="#3D3232" stroke-width="1.5" stroke-linecap="round" stroke-linejoin="round"/>
<path d="M211.512 166.771C214.226 166.771 216.426 164.548 216.426 161.806C216.426 159.063 214.226 156.84 211.512 156.84C208.798 156.84 206.598 159.063 206.598 161.806C206.598 164.548 208.798 166.771 211.512 166.771Z" fill="#565656"/>
<path d="M11.9901 0.154439H15.216H25.3226H51.7868C113.439 0.12718 220.82 0.127154 232.929 0.127154H235.211C237.574 0.127154 243.209 -0.0772496 248.949 1.64462C252.342 2.60628 255.466 4.33692 258.075 6.70112C262.223 10.5719 265.166 16.6961 264.919 26.4322C264.805 31.1208 264.609 39.1531 264.362 49.3344C263.664 77.7474 262.537 123.166 261.625 161.21C260.712 198.578 259.969 228.826 259.969 228.826L255.62 394.652C255.556 399.835 253.741 404.846 250.469 408.877C246.755 413.32 240.39 417.45 229.567 417.45H13.5324C13.5004 417.45 -8.02222 415.633 -7.35149 385.094C-7.20092 378.388 -7.16898 369.061 -7.21005 358.53C-7.21005 358.521 -7.20668 358.513 -7.20069 358.507C-7.1947 358.501 -7.18658 358.498 -7.17811 358.498H-4.40852C-4.40078 358.498 -4.39326 358.501 -4.38738 358.506C-4.38151 358.511 -4.37768 358.517 -4.37658 358.525L-3.46402 394.816C-3.46402 394.816 -2.62445 413.852 17.6571 413.852H214.017C214.017 413.852 235.498 414.179 235.982 395.18C236.466 376.18 238.815 279.946 238.815 279.946L243.177 101.822L244.92 24.2333C245.03 21.0671 244.508 17.9106 243.383 14.947C241.416 9.94951 237.054 3.98888 227.413 3.89802C210.768 3.73901 135.651 3.73902 135.651 3.73902H7.59163C7.59163 3.73902 -11.4307 3.32105 -12.5668 23.7881H-14.3919C-14.3919 23.7881 -15.7334 0.218044 11.9901 0.154439Z" fill="#565656"/>
<path d="M166.139 235.437H195.519C202.171 235.437 207.564 230.067 207.564 223.443V213.03C207.564 206.406 202.171 201.036 195.519 201.036H166.139C159.486 201.036 154.093 206.406 154.093 213.03V223.443C154.093 230.067 159.486 235.437 166.139 235.437Z" fill="#565656"/>
<path d="M100.151 235.437H129.53C136.183 235.437 141.576 230.067 141.576 223.443V213.03C141.576 206.406 136.183 201.036 129.53 201.036H100.151C93.4979 201.036 88.1049 206.406 88.1049 213.03V223.443C88.1049 230.067 93.4979 235.437 100.151 235.437Z" fill="#565656"/>
<path d="M34.1643 235.437H63.5441C70.1968 235.437 75.5898 230.067 75.5898 223.443V213.03C75.5898 206.406 70.1968 201.036 63.5441 201.036H34.1643C27.5116 201.036 22.1185 206.406 22.1185 213.03V223.443C22.1185 230.067 27.5116 235.437 34.1643 235.437Z" fill="#565656"/>
<path d="M166.139 281.609H195.519C202.171 281.609 207.564 276.239 207.564 269.615V259.202C207.564 252.578 202.171 247.208 195.519 247.208H166.139C159.486 247.208 154.093 252.578 154.093 259.202V269.615C154.093 276.239 159.486 281.609 166.139 281.609Z" fill="#565656"/>
<path d="M100.151 281.609H129.53C136.183 281.609 141.576 276.239 141.576 269.615V259.202C141.576 252.578 136.183 247.208 129.53 247.208H100.151C93.4979 247.208 88.1049 252.578 88.1049 259.202V269.615C88.1049 276.239 93.4979 281.609 100.151 281.609Z" fill="#565656"/>
<path d="M34.1643 281.609H63.5441C70.1968 281.609 75.5898 276.239 75.5898 269.615V259.202C75.5898 252.578 70.1968 247.208 63.5441 247.208H34.1643C27.5116 247.208 22.1185 252.578 22.1185 259.202V269.615C22.1185 276.239 27.5116 281.609 34.1643 281.609Z" fill="#565656"/>
<path d="M166.139 327.777H195.519C202.171 327.777 207.564 322.407 207.564 315.783V305.37C207.564 298.746 202.171 293.376 195.519 293.376H166.139C159.486 293.376 154.093 298.746 154.093 305.37V315.783C154.093 322.407 159.486 327.777 166.139 327.777Z" fill="#565656"/>
<path d="M100.151 327.777H129.53C136.183 327.777 141.576 322.407 141.576 315.783V305.37C141.576 298.746 136.183 293.376 129.53 293.376H100.151C93.4979 293.376 88.1049 298.746 88.1049 305.37V315.783C88.1049 322.407 93.4979 327.777 100.151 327.777Z" fill="#565656"/>
<path d="M34.1643 327.777H63.5441C70.1968 327.777 75.5898 322.407 75.5898 315.783V305.37C75.5898 298.746 70.1968 293.376 63.5441 293.376H34.1643C27.5116 293.376 22.1185 298.746 22.1185 305.37V315.783C22.1185 322.407 27.5116 327.777 34.1643 327.777Z" fill="#565656"/>
<path d="M166.139 373.945H195.519C202.171 373.945 207.564 368.575 207.564 361.951V351.538C207.564 344.914 202.171 339.544 195.519 339.544H166.139C159.486 339.544 154.093 344.914 154.093 351.538V361.951C154.093 368.575 159.486 373.945 166.139 373.945Z" fill="#565656"/>
<path d="M100.151 373.945H129.53C136.183 373.945 141.576 368.575 141.576 361.951V351.538C141.576 344.914 136.183 339.544 129.53 339.544H100.151C93.4979 339.544 88.1049 344.914 88.1049 351.538V361.951C88.1049 368.575 93.4979 373.945 100.151 373.945Z" fill="#565656"/>
<path d="M34.1643 373.945H63.5441C70.1968 373.945 75.5898 368.575 75.5898 361.951V351.538C75.5898 344.914 70.1968 339.544 63.5441 339.544H34.1643C27.5116 339.544 22.1185 344.914 22.1185 351.538V361.951C22.1185 368.575 27.5116 373.945 34.1643 373.945Z" fill="#565656"/>
<path d="M168.657 232.488H193C198.511 232.488 202.979 228.04 202.979 222.552V213.925C202.979 208.437 198.511 203.989 193 203.989H168.657C163.146 203.989 158.678 208.437 158.678 213.925V222.552C158.678 228.04 163.146 232.488 168.657 232.488Z" fill="#7A9CCE" stroke="#3D3232" stroke-width="1.5" stroke-linecap="round" stroke-linejoin="round"/>
<path d="M102.669 232.488H127.011C132.523 232.488 136.99 228.04 136.99 222.552V213.925C136.99 208.437 132.523 203.989 127.011 203.989H102.669C97.1578 203.989 92.6901 208.437 92.6901 213.925V222.552C92.6901 228.04 97.1578 232.488 102.669 232.488Z" fill="#7A9CCE" stroke="#3D3232" stroke-width="1.5" stroke-linecap="round" stroke-linejoin="round"/>
<path d="M36.6826 232.488H61.0251C66.5362 232.488 71.0039 228.04 71.0039 222.552V213.925C71.0039 208.437 66.5362 203.989 61.0251 203.989H36.6826C31.1715 203.989 26.7038 208.437 26.7038 213.925V222.552C26.7038 228.04 31.1715 232.488 36.6826 232.488Z" fill="#7A9CCE" stroke="#3D3232" stroke-width="1.5" stroke-linecap="round" stroke-linejoin="round"/>
<path d="M168.657 278.656H193C198.511 278.656 202.979 274.208 202.979 268.72V260.093C202.979 254.605 198.511 250.157 193 250.157H168.657C163.146 250.157 158.678 254.605 158.678 260.093V268.72C158.678 274.208 163.146 278.656 168.657 278.656Z" fill="#7A9CCE" stroke="#3D3232" stroke-width="1.5" stroke-linecap="round" stroke-linejoin="round"/>
<path d="M102.669 278.656H127.011C132.523 278.656 136.99 274.208 136.99 268.72V260.093C136.99 254.605 132.523 250.157 127.011 250.157H102.669C97.1578 250.157 92.6901 254.605 92.6901 260.093V268.72C92.6901 274.208 97.1578 278.656 102.669 278.656Z" fill="#7A9CCE" stroke="#3D3232" stroke-width="1.5" stroke-linecap="round" stroke-linejoin="round"/>
<path d="M36.6826 278.656H61.0251C66.5362 278.656 71.0039 274.208 71.0039 268.72V260.093C71.0039 254.605 66.5362 250.157 61.0251 250.157H36.6826C31.1715 250.157 26.7038 254.605 26.7038 260.093V268.72C26.7038 274.208 31.1715 278.656 36.6826 278.656Z" fill="#7A9CCE" stroke="#3D3232" stroke-width="1.5" stroke-linecap="round" stroke-linejoin="round"/>
<path d="M168.657 324.828H193C198.511 324.828 202.979 320.38 202.979 314.892V306.265C202.979 300.777 198.511 296.329 193 296.329H168.657C163.146 296.329 158.678 300.777 158.678 306.265V314.892C158.678 320.38 163.146 324.828 168.657 324.828Z" fill="#7A9CCE" stroke="#3D3232" stroke-width="1.5" stroke-linecap="round" stroke-linejoin="round"/>
<path d="M102.669 324.828H127.011C132.523 324.828 136.99 320.38 136.99 314.892V306.265C136.99 300.777 132.523 296.329 127.011 296.329H102.669C97.1578 296.329 92.6901 300.777 92.6901 306.265V314.892C92.6901 320.38 97.1578 324.828 102.669 324.828Z" fill="#7A9CCE" stroke="#3D3232" stroke-width="1.5" stroke-linecap="round" stroke-linejoin="round"/>
<path d="M36.6826 324.828H61.0251C66.5362 324.828 71.0039 320.38 71.0039 314.892V306.265C71.0039 300.777 66.5362 296.329 61.0251 296.329H36.6826C31.1715 296.329 26.7038 300.777 26.7038 306.265V314.892C26.7038 320.38 31.1715 324.828 36.6826 324.828Z" fill="#7A9CCE" stroke="#3D3232" stroke-width="1.5" stroke-linecap="round" stroke-linejoin="round"/>
<path d="M168.661 370.996H193.004C198.515 370.996 202.982 366.548 202.982 361.06V352.433C202.982 346.945 198.515 342.497 193.004 342.497H168.661C163.15 342.497 158.682 346.945 158.682 352.433V361.06C158.682 366.548 163.15 370.996 168.661 370.996Z" fill="#7A9CCE" stroke="#3D3232" stroke-width="1.5" stroke-linecap="round" stroke-linejoin="round"/>
<path d="M102.669 370.996H127.011C132.523 370.996 136.99 366.548 136.99 361.06V352.433C136.99 346.945 132.523 342.497 127.011 342.497H102.669C97.1578 342.497 92.6901 346.945 92.6901 352.433V361.06C92.6901 366.548 97.1578 370.996 102.669 370.996Z" fill="#7A9CCE" stroke="#3D3232" stroke-width="1.5" stroke-linecap="round" stroke-linejoin="round"/>
<path d="M36.6826 370.996H61.0251C66.5362 370.996 71.0039 366.548 71.0039 361.06V352.433C71.0039 346.945 66.5362 342.497 61.0251 342.497H36.6826C31.1715 342.497 26.7038 346.945 26.7038 352.433V361.06C26.7038 366.548 31.1715 370.996 36.6826 370.996Z" fill="#7A9CCE"/>
<path d="M25.0554 0.390625H14.9488H11.7229C-16.0051 0.449686 -14.6454 23.9606 -14.6454 23.9788H-12.8203C-12.7596 22.858 -12.6347 21.7416 -12.4462 20.635L-12.3367 20.0353C-12.0945 18.7763 -11.7481 17.5393 -11.3009 16.3372C-6.56016 3.61627 7.33807 3.92973 7.33807 3.92973H135.388C135.388 3.92973 210.505 3.92977 227.15 4.08423C236.855 4.1751 241.213 10.2266 243.157 15.2559C244.239 18.1959 244.735 21.3177 244.617 24.4468L242.869 102.04L238.512 280.164C238.512 280.164 236.157 376.398 235.674 395.398C235.19 414.397 213.713 414.07 213.713 414.07H17.3899C-2.89168 414.07 -3.73579 395.034 -3.73579 395.034L-4.62554 358.716H-7.45447C-7.60961 319.254 -8.78223 262.773 -8.78223 262.773L-13.0895 86.7928L-14.431 31.8203L-14.6226 23.997" stroke="#3D3232" stroke-width="1.5" stroke-miterlimit="10"/>
<path d="M28.4888 184.408L202.504 184.408C218.425 184.408 231.332 171.557 231.332 155.704L231.332 63.1139C231.332 47.2612 218.425 34.4101 202.504 34.4101L28.4888 34.4101C12.5677 34.4101 -0.338913 47.2612 -0.338913 63.1139L-0.338913 155.704C-0.338913 171.557 12.5677 184.408 28.4888 184.408Z" stroke="#3D3232" stroke-width="1.5" stroke-miterlimit="10"/>
<path d="M33.3259 180.237L197.668 180.237C212.705 180.237 224.895 168.1 224.895 153.128V65.6807C224.895 50.7087 212.705 38.5715 197.668 38.5715L33.3259 38.5715C18.2893 38.5715 6.09975 50.7087 6.09975 65.6807V153.128C6.09975 168.1 18.2893 180.237 33.3259 180.237Z" stroke="#3D3232" stroke-width="1.5" stroke-miterlimit="10"/>
<path d="M211.205 167.062C213.919 167.062 216.119 164.839 216.119 162.096C216.119 159.354 213.919 157.13 211.205 157.13C208.491 157.13 206.291 159.354 206.291 162.096C206.291 164.839 208.491 167.062 211.205 167.062Z" fill="#565656" stroke="#3D3232" stroke-width="1.5" stroke-miterlimit="10"/>
<path d="M11.7246 0.408872H14.9505H25.0571H51.5212C113.174 0.381613 220.55 0.381642 232.664 0.381642H234.945C237.313 0.381642 242.948 0.181726 248.684 1.89905C252.077 2.86041 255.2 4.59114 257.809 6.95561C261.957 10.8264 264.9 16.9506 264.654 26.6867C264.54 31.3752 264.343 39.4075 264.092 49.5888C263.399 78.0064 262.267 123.42 261.355 161.465C260.442 198.832 259.703 229.081 259.703 229.081L255.355 394.907C255.218 400.077 253.53 405.156 250.203 409.132C246.489 413.575 240.124 417.709 229.301 417.709H13.2851C13.2486 417.709 -8.26954 415.892 -7.59881 385.353C-7.44824 378.647 -7.4163 369.324 -7.45736 358.789C-7.45736 358.78 -7.454 358.772 -7.44801 358.766C-7.44202 358.76 -7.43389 358.757 -7.42542 358.757H-4.66037C-4.6519 358.757 -4.64378 358.76 -4.63779 358.766C-4.6318 358.772 -4.62843 358.78 -4.62843 358.789L-3.73868 395.075C-3.73868 395.075 -2.89457 414.111 17.387 414.111H213.728C213.728 414.111 235.21 414.438 235.689 395.439C236.168 376.439 238.527 280.205 238.527 280.205L242.885 102.081L244.618 24.4469C244.728 21.2806 244.205 18.1243 243.081 15.1606C241.114 10.1631 236.752 4.20244 227.111 4.11158C210.471 3.95711 135.353 3.95712 135.353 3.95712H7.32608C7.32608 3.95712 -11.6962 3.53461 -12.8323 24.0062H-14.6574C-14.6574 24.0062 -16.0034 0.467933 11.7246 0.408872Z" stroke="#3D3232" stroke-width="1.5" stroke-miterlimit="10"/>
<path d="M165.873 235.687H195.253C201.906 235.687 207.299 230.317 207.299 223.693V213.28C207.299 206.656 201.906 201.286 195.253 201.286H165.873C159.221 201.286 153.828 206.656 153.828 213.28V223.693C153.828 230.317 159.221 235.687 165.873 235.687Z" stroke="#3D3232" stroke-width="1.5" stroke-miterlimit="10"/>
<path d="M99.887 235.687H129.267C135.919 235.687 141.312 230.317 141.312 223.693V213.28C141.312 206.656 135.919 201.286 129.267 201.286H99.887C93.2343 201.286 87.8412 206.656 87.8412 213.28V223.693C87.8412 230.317 93.2343 235.687 99.887 235.687Z" stroke="#3D3232" stroke-width="1.5" stroke-miterlimit="10"/>
<path d="M33.8987 235.687H63.2785C69.9312 235.687 75.3242 230.317 75.3242 223.693V213.28C75.3242 206.656 69.9312 201.286 63.2785 201.286H33.8987C27.246 201.286 21.8529 206.656 21.8529 213.28V223.693C21.8529 230.317 27.246 235.687 33.8987 235.687Z" stroke="#3D3232" stroke-width="1.5" stroke-miterlimit="10"/>
<path d="M165.873 281.859H195.253C201.906 281.859 207.299 276.489 207.299 269.865V259.452C207.299 252.828 201.906 247.458 195.253 247.458H165.873C159.221 247.458 153.828 252.828 153.828 259.452V269.865C153.828 276.489 159.221 281.859 165.873 281.859Z" stroke="#3D3232" stroke-width="1.5" stroke-miterlimit="10"/>
<path d="M99.887 281.854H129.267C135.919 281.854 141.312 276.485 141.312 269.86V259.448C141.312 252.823 135.919 247.454 129.267 247.454H99.887C93.2343 247.454 87.8412 252.823 87.8412 259.448V269.86C87.8412 276.485 93.2343 281.854 99.887 281.854Z" stroke="#3D3232" stroke-width="1.5" stroke-miterlimit="10"/>
<path d="M33.8987 281.854H63.2785C69.9312 281.854 75.3242 276.485 75.3242 269.86V259.448C75.3242 252.823 69.9312 247.454 63.2785 247.454H33.8987C27.246 247.454 21.8529 252.823 21.8529 259.448V269.86C21.8529 276.485 27.246 281.854 33.8987 281.854Z" stroke="#3D3232" stroke-width="1.5" stroke-miterlimit="10"/>
<path d="M165.873 328.031H195.253C201.906 328.031 207.299 322.661 207.299 316.037V305.624C207.299 299 201.906 293.63 195.253 293.63H165.873C159.221 293.63 153.828 299 153.828 305.624V316.037C153.828 322.661 159.221 328.031 165.873 328.031Z" stroke="#3D3232" stroke-width="1.5" stroke-miterlimit="10"/>
<path d="M99.887 328.031H129.267C135.919 328.031 141.312 322.661 141.312 316.037V305.624C141.312 299 135.919 293.63 129.267 293.63H99.887C93.2343 293.63 87.8412 299 87.8412 305.624V316.037C87.8412 322.661 93.2343 328.031 99.887 328.031Z" stroke="#3D3232" stroke-width="1.5" stroke-miterlimit="10"/>
<path d="M33.8987 328.031H63.2785C69.9312 328.031 75.3242 322.661 75.3242 316.037V305.624C75.3242 299 69.9312 293.63 63.2785 293.63H33.8987C27.246 293.63 21.8529 299 21.8529 305.624V316.037C21.8529 322.661 27.246 328.031 33.8987 328.031Z" stroke="#3D3232" stroke-width="1.5" stroke-miterlimit="10"/>
<path d="M165.873 374.199H195.253C201.906 374.199 207.299 368.829 207.299 362.205V351.792C207.299 345.168 201.906 339.798 195.253 339.798H165.873C159.221 339.798 153.828 345.168 153.828 351.792V362.205C153.828 368.829 159.221 374.199 165.873 374.199Z" stroke="#3D3232" stroke-width="1.5" stroke-miterlimit="10"/>
<path d="M99.887 374.199H129.267C135.919 374.199 141.312 368.829 141.312 362.205V351.792C141.312 345.168 135.919 339.798 129.267 339.798H99.887C93.2343 339.798 87.8412 345.168 87.8412 351.792V362.205C87.8412 368.829 93.2343 374.199 99.887 374.199Z" stroke="#3D3232" stroke-width="1.5" stroke-miterlimit="10"/>
<path d="M33.8987 374.199H63.2785C69.9312 374.199 75.3242 368.829 75.3242 362.205V351.792C75.3242 345.168 69.9312 339.798 63.2785 339.798H33.8987C27.246 339.798 21.8529 345.168 21.8529 351.792V362.205C21.8529 368.829 27.246 374.199 33.8987 374.199Z" stroke="#3D3232" stroke-width="1.5" stroke-miterlimit="10"/>
<path d="M168.394 232.738H192.736C198.247 232.738 202.715 228.29 202.715 222.802V214.175C202.715 208.687 198.247 204.239 192.736 204.239H168.394C162.882 204.239 158.415 208.687 158.415 214.175V222.802C158.415 228.29 162.882 232.738 168.394 232.738Z" stroke="#3D3232" stroke-width="1.5" stroke-miterlimit="10"/>
<path d="M102.405 232.738H126.748C132.259 232.738 136.727 228.29 136.727 222.802V214.175C136.727 208.687 132.259 204.239 126.748 204.239H102.405C96.8941 204.239 92.4265 208.687 92.4265 214.175V222.802C92.4265 228.29 96.8941 232.738 102.405 232.738Z" stroke="#3D3232" stroke-width="1.5" stroke-miterlimit="10"/>
<path d="M36.419 232.738H60.7614C66.2726 232.738 70.7402 228.29 70.7402 222.802V214.175C70.7402 208.687 66.2726 204.239 60.7614 204.239H36.419C30.9078 204.239 26.4401 208.687 26.4401 214.175V222.802C26.4401 228.29 30.9078 232.738 36.419 232.738Z" stroke="#3D3232" stroke-width="1.5" stroke-miterlimit="10"/>
<path d="M168.394 278.91H192.736C198.247 278.91 202.715 274.462 202.715 268.974V260.347C202.715 254.859 198.247 250.411 192.736 250.411H168.394C162.882 250.411 158.415 254.859 158.415 260.347V268.974C158.415 274.462 162.882 278.91 168.394 278.91Z" stroke="#3D3232" stroke-width="1.5" stroke-miterlimit="10"/>
<path d="M102.405 278.906H126.748C132.259 278.906 136.727 274.458 136.727 268.97V260.343C136.727 254.855 132.259 250.407 126.748 250.407H102.405C96.8941 250.407 92.4265 254.855 92.4265 260.343V268.97C92.4265 274.458 96.8941 278.906 102.405 278.906Z" stroke="#3D3232" stroke-width="1.5" stroke-miterlimit="10"/>
<path d="M36.419 278.906H60.7614C66.2726 278.906 70.7402 274.458 70.7402 268.97V260.343C70.7402 254.855 66.2726 250.407 60.7614 250.407H36.419C30.9078 250.407 26.4401 254.855 26.4401 260.343V268.97C26.4401 274.458 30.9078 278.906 36.419 278.906Z" stroke="#3D3232" stroke-width="1.5" stroke-miterlimit="10"/>
<path d="M168.394 325.083H192.736C198.247 325.083 202.715 320.634 202.715 315.147V306.519C202.715 301.032 198.247 296.583 192.736 296.583H168.394C162.882 296.583 158.415 301.032 158.415 306.519V315.147C158.415 320.634 162.882 325.083 168.394 325.083Z" stroke="#3D3232" stroke-width="1.5" stroke-miterlimit="10"/>
<path d="M102.405 325.083H126.748C132.259 325.083 136.727 320.634 136.727 315.147V306.519C136.727 301.032 132.259 296.584 126.748 296.584H102.405C96.8941 296.584 92.4265 301.032 92.4265 306.519V315.147C92.4265 320.634 96.8941 325.083 102.405 325.083Z" stroke="#3D3232" stroke-width="1.5" stroke-miterlimit="10"/>
<path d="M36.419 325.083H60.7614C66.2726 325.083 70.7402 320.634 70.7402 315.147V306.519C70.7402 301.032 66.2726 296.584 60.7614 296.584H36.419C30.9078 296.584 26.4401 301.032 26.4401 306.519V315.147C26.4401 320.634 30.9078 325.083 36.419 325.083Z" stroke="#3D3232" stroke-width="1.5" stroke-miterlimit="10"/>
<path d="M168.394 371.251H192.736C198.247 371.251 202.715 366.802 202.715 361.315V352.687C202.715 347.2 198.247 342.751 192.736 342.751H168.394C162.882 342.751 158.415 347.2 158.415 352.687V361.315C158.415 366.802 162.882 371.251 168.394 371.251Z" stroke="#3D3232" stroke-width="1.5" stroke-miterlimit="10"/>
<path d="M102.405 371.251H126.748C132.259 371.251 136.727 366.802 136.727 361.315V352.687C136.727 347.2 132.259 342.751 126.748 342.751H102.405C96.8941 342.751 92.4265 347.2 92.4265 352.687V361.315C92.4265 366.802 96.8941 371.251 102.405 371.251Z" stroke="#3D3232" stroke-width="1.5" stroke-miterlimit="10"/>
<path d="M36.419 371.251H60.7614C66.2726 371.251 70.7402 366.802 70.7402 361.315V352.687C70.7402 347.2 66.2726 342.751 60.7614 342.751H36.419C30.9078 342.751 26.4401 347.2 26.4401 352.687V361.315C26.4401 366.802 30.9078 371.251 36.419 371.251Z" stroke="#3D3232" stroke-width="1.5" stroke-miterlimit="10"/>
</g>
<defs>
<clipPath id="clip0_1089_5">
<rect width="280" height="418" fill="white" transform="translate(-15)"/>
</clipPath>
</defs>
</svg>
