<svg width="496" height="760" viewBox="0 0 496 760" fill="none" xmlns="http://www.w3.org/2000/svg">
<g clip-path="url(#clip0_1089_64)">
<path d="M559.621 547.784C538.291 505.961 547.333 461.488 547.333 461.488C577.207 452.144 621.681 396.605 611.557 350.415C601.432 304.226 532.681 266.363 532.681 266.363C540.029 287.4 546.697 337.97 545.671 357.756C545.448 363.573 543.816 369.249 540.914 374.296C532.487 388.437 518.826 374.965 516.962 360.977C514.651 343.625 519.003 254.033 519.003 254.033C420.576 195.611 381.697 199.637 381.697 199.637C381.697 199.637 392.893 224.652 400.432 239.506C407.97 254.36 421.347 290.696 423.303 307.088C425.21 323.081 402.044 301.008 394.459 290.191C388.232 281.239 334.433 191.089 334.433 191.089C290.325 185.313 269.685 185.468 244.657 194.929C223.302 202.998 208.583 224.225 206.884 248.351C203.793 290.822 204.54 297.129 217.199 319.395C225.757 334.427 256.327 338.142 272.337 338.972C281.787 339.476 291.206 340.31 300.57 341.622C319.513 344.272 345.225 348.879 343.598 354.202C341.058 362.581 312.606 371.591 312.606 371.591C277.372 381.921 236.732 372.99 236.732 372.99C236.732 372.99 252.301 420.399 275.494 448.962C298.687 477.526 311.979 478.384 334.516 478.429C357.052 478.474 400.355 458.688 409.821 453.217C419.288 447.747 434.888 448.112 454.665 450.252C474.442 452.393 490.131 460.823 458.986 461.486C440.752 461.881 420.146 465.001 406.29 467.511C388.678 470.629 372.312 478.675 359.092 490.716C345.646 503.044 340.749 514.148 340.749 514.148C345.784 533.542 403.239 537.479 414.626 537.987C513.922 542.418 527.639 501.944 527.639 501.944C527.639 501.944 557.348 558.707 563.312 575.841C566.631 585.408 570.194 614.503 570.466 644.593L583.027 645.153C581.699 610.481 574.259 576.578 559.621 547.784Z" fill="#85BB65"/>
<path d="M559.68 547.715C538.349 505.892 547.392 461.419 547.392 461.419C577.266 452.075 621.74 396.536 611.615 350.346C601.491 304.157 532.74 266.294 532.74 266.294C540.087 287.33 546.755 337.901 545.729 357.686C545.507 363.504 543.874 369.18 540.972 374.226C532.546 388.368 518.885 374.896 517.021 360.908C514.71 343.556 519.061 253.964 519.061 253.964C420.635 195.542 381.756 199.568 381.756 199.568C381.756 199.568 392.951 224.583 400.49 239.437C408.029 254.291 421.405 290.627 423.361 307.019C425.269 323.012 402.103 300.939 394.518 290.122C388.29 281.17 334.492 191.019 334.492 191.019C290.384 185.244 269.743 185.399 244.716 194.86C223.36 202.929 208.642 224.156 206.943 248.282C203.852 290.753 204.599 297.06 217.257 319.326C225.815 334.358 256.386 338.073 272.395 338.903C281.849 339.325 291.264 340.241 300.629 341.553C319.572 344.203 345.284 348.809 343.657 354.133C341.116 362.512 312.664 371.522 312.664 371.522C277.43 381.869 236.791 372.921 236.791 372.921C236.791 372.921 252.359 420.33 275.552 448.893C298.745 477.457 312.038 478.314 334.574 478.36C357.11 478.405 400.414 458.619 409.88 453.148C419.346 447.678 434.946 448.043 454.723 450.183C474.5 452.323 490.19 460.754 459.044 461.417C440.811 461.812 420.205 464.932 406.349 467.442C388.736 470.56 372.371 478.606 359.151 490.647C345.704 502.975 340.807 514.079 340.807 514.079C345.843 533.473 403.297 537.41 414.684 537.918C513.98 542.349 527.697 501.875 527.697 501.875C527.697 501.875 557.407 558.638 563.371 575.772C566.689 585.356 570.251 614.45 570.525 644.524L583.086 645.084C581.757 610.411 574.318 576.509 559.68 547.715Z" stroke="#3D3232" stroke-width="1.5" stroke-linecap="round" stroke-linejoin="round"/>
<path d="M682.582 229.731C682.357 256.091 669.35 314.938 660.247 336.498C657.65 342.873 653.554 348.528 648.305 352.982C633.236 365.288 623.459 344.905 627.032 328.544C631.455 308.331 672.353 210.553 672.353 210.553C586.452 106.041 541.688 94.8898 541.688 94.8898C541.688 94.8898 544.049 127.175 546.445 146.716C548.842 166.257 549.083 212.005 544.661 231.06C540.362 249.606 523.399 215.726 519.511 200.704C516.221 188.258 508.499 75.5146 508.499 75.5146C461.811 51.3656 438.722 43.234 407.239 43.6833C380.259 44.1349 351.92 62.9334 336.11 86.7439C312.119 122.869 309.999 139.692 321.181 168.746C328.404 187.741 346.615 198.32 364.039 205.719C374.345 210.069 384.469 214.791 394.373 220.017C414.34 230.575 441.061 246.037 437.118 251.307C430.922 259.589 395.68 258.149 395.68 258.149C352.443 255.508 310.851 229.202 310.851 229.202C310.851 229.202 309.084 288.137 323.377 329.199C337.67 370.26 352.062 376.564 377.177 385.679C402.292 394.795 458.286 390.209 471.005 387.946C483.724 385.682 500.932 392.343 522 402.719C543.069 413.094 557.18 428.738 522.298 416.935C501.821 410.029 477.724 405.229 461.305 402.428C440.475 398.82 419.05 401.187 399.515 409.255C379.607 417.538 369.708 427.905 369.708 427.905C367.488 451.478 429.761 478.954 442.201 484.111C550.784 528.966 582.307 489.502 582.307 489.502C582.307 489.502 592.482 564.447 592.208 585.954C592.099 595.517 587.12 618.933 579.143 644.964L593.274 645.594C600.565 614.468 603.12 582.981 599.44 553.169C592.639 498.14 620.469 452.336 620.469 452.336C657.424 453.985 729.201 410.143 736.541 354.751C743.881 299.359 682.582 229.731 682.582 229.731Z" fill="#85BB65"/>
<path d="M682.629 230.033C682.404 256.393 669.396 315.24 660.293 336.801C657.697 343.176 653.601 348.831 648.352 353.285C633.283 365.591 623.505 345.207 627.079 328.846C631.502 308.633 672.4 210.855 672.4 210.855C586.499 106.344 541.735 95.1923 541.735 95.1923C541.735 95.1923 544.096 127.478 546.492 147.019C548.889 166.559 549.13 212.308 544.708 231.362C540.409 249.909 523.446 216.028 519.558 201.006C516.267 188.56 508.546 75.8336 508.546 75.8336C461.858 51.6681 438.769 43.5365 407.285 43.9858C380.306 44.4374 351.967 63.2359 336.156 87.0463C312.166 123.172 310.046 139.995 321.228 169.049C328.663 188.119 346.724 198.725 364.166 206.091C374.472 210.441 384.596 215.164 394.499 220.389C414.466 230.948 441.188 246.409 437.245 251.679C431.049 259.961 395.807 258.521 395.807 258.521C352.57 255.88 310.978 229.575 310.978 229.575C310.978 229.575 309.21 288.509 323.503 329.571C337.796 370.632 352.189 376.936 377.304 386.052C402.419 395.168 458.412 390.581 471.131 388.318C483.85 386.055 501.059 392.715 522.127 403.091C543.195 413.467 557.306 429.11 522.424 417.324C501.948 410.401 477.85 405.602 461.431 402.8C440.601 399.192 419.177 401.559 399.642 409.627C379.734 417.91 369.835 428.278 369.835 428.278C367.615 451.85 429.887 479.327 442.327 484.484C550.91 529.338 582.433 489.89 582.433 489.89C582.433 489.89 592.608 564.835 592.334 586.343C592.225 595.889 587.25 619.223 579.269 645.353L593.4 645.983C600.691 614.857 603.246 583.37 599.566 553.558C592.765 498.529 620.594 452.742 620.594 452.742C657.549 454.391 729.326 410.531 736.666 355.139C744.007 299.748 682.629 230.033 682.629 230.033Z" stroke="#3D3232" stroke-width="1.5" stroke-linecap="round" stroke-linejoin="round"/>
</g>
<defs>
<clipPath id="clip0_1089_64">
<rect width="641.73" height="818.781" fill="white" transform="translate(303.402 -53) rotate(21.7498)"/>
</clipPath>
</defs>
</svg>
